<?xml version="1.0" standalone="no"?>
<!DOCTYPE svg PUBLIC "-//W3C//DTD SVG 20010904//EN"
 "http://www.w3.org/TR/2001/REC-SVG-20010904/DTD/svg10.dtd">
<svg version="1.0" xmlns="http://www.w3.org/2000/svg"
 width="457.000000pt" height="360.000000pt" viewBox="0 0 457.000000 360.000000"
 preserveAspectRatio="xMidYMid meet">

<g transform="translate(0.000000,360.000000) scale(0.100000,-0.100000)"
fill="#000000" stroke="none">
<path d="M0 1800 l0 -1800 575 0 575 0 0 1225 0 1225 225 0 225 0 0 575 0 575
-800 0 -800 0 0 -1800z"/>
<path d="M1710 1800 l0 -1800 575 0 575 0 0 1225 0 1225 225 0 225 0 0 575 0
575 -800 0 -800 0 0 -1800z"/>
<path d="M3420 1800 l0 -1800 575 0 575 0 0 1800 0 1800 -575 0 -575 0 0
-1800z"/>
</g>
</svg>
